HIERARCHY
ROOT hip
{
	OFFSET 0.000000 0.000000 0.000000 
	CHANNELS 6 Xposition Yposition Zposition Xrotation Zrotation Yrotation
	JOINT abdomen
	{
		OFFSET 0.000000 3.402643 0.000000 
		CHANNELS 3 Xrotation Zrotation Yrotation
		JOINT chest
		{
			OFFSET 0.000000 8.438565 -0.680529 
			CHANNELS 3 Xrotation Zrotation Yrotation
			JOINT neck
			{
				OFFSET 0.000000 10.207942 -0.272212 
				CHANNELS 3 Xrotation Zrotation Yrotation
				JOINT head
				{
					OFFSET 0.000000 3.130431 0.000000 
					CHANNELS 3 Xrotation Zrotation Yrotation
					End Site
					{
						OFFSET 0.000000 3.130435 0.000000 
					}
				}
			}
			JOINT lCollar
			{
				OFFSET 3.470700 6.669187 -0.816635 
				CHANNELS 3 Yrotation Zrotation Xrotation
				JOINT lShldr
				{
					OFFSET 3.198488 0.000000 0.000000 
					CHANNELS 3 Zrotation Yrotation Xrotation
					JOINT lForeArm
					{
						OFFSET 10.139888 0.000000 0.000000 
						CHANNELS 3 Yrotation Zrotation Xrotation
						JOINT lHand
						{
							OFFSET 8.370511 0.000000 0.000000 
							CHANNELS 3 Zrotation Yrotation Xrotation
							End Site
							{
								OFFSET 4.083176 0.000000 0.000000 
							}
						}
					}
				}
			}
			JOINT rCollar
			{
				OFFSET -3.470700 6.669187 -0.816635 
				CHANNELS 3 Yrotation Zrotation Xrotation
				JOINT rShldr
				{
					OFFSET -3.198488 0.000000 0.000000 
					CHANNELS 3 Zrotation Yrotation Xrotation
					JOINT rForeArm
					{
						OFFSET -10.139888 0.000000 0.000000 
						CHANNELS 3 Yrotation Zrotation Xrotation
						JOINT rHand
						{
							OFFSET -8.370511 0.000000 0.000000 
							CHANNELS 3 Zrotation Yrotation Xrotation
							End Site
							{
								OFFSET -4.083176 0.000000 0.000000 
							}
						}
					}
				}
			}
		}
	}
	JOINT lThigh
	{
		OFFSET 5.308129 -1.633274 1.361059 
		CHANNELS 3 Xrotation Zrotation Yrotation
		JOINT lShin
		{
			OFFSET -2.041588 -20.007561 0.000000 
			CHANNELS 3 Xrotation Zrotation Yrotation
			JOINT lFoot
			{
				OFFSET 0.000000 -19.190928 -1.224953 
				CHANNELS 3 Xrotation Yrotation Zrotation
				End Site
				{
					OFFSET 0.000000 -2.449906 4.627600 
				}
			}
		}
	}
	JOINT rThigh
	{
		OFFSET -5.308129 -1.633274 1.361059 
		CHANNELS 3 Xrotation Zrotation Yrotation
		JOINT rShin
		{
			OFFSET 2.041588 -20.007561 0.000000 
			CHANNELS 3 Xrotation Zrotation Yrotation
			JOINT rFoot
			{
				OFFSET 0.000000 -19.190928 -1.224953 
				CHANNELS 3 Xrotation Yrotation Zrotation
				End Site
				{
					OFFSET 0.000000 -2.449906 4.627600 
				}
			}
		}
	}
}
MOTION
Frames: 16
Frame Time: 0.033333
-0.238264 47.605972 1.191300 0.555039 -1.160550 2.969327 0.000000 0.000000 0.000000 -2.968838 0.502514 0.335053 8.555607 2.167152 1.573726 18.059908 3.612365 1.292039 -1.392792 9.135426 -1.998085 -22.936268 -5.983823 -16.371288 -0.005090 1.649104 10.756164 -6.562580 -1.757299 -3.119453 1.165772 -6.618955 -2.092707 17.547140 -4.185943 -23.230770 -0.001049 -4.737567 30.075262 4.136861 14.749949 -2.592791 -4.490912 12.046073 7.081916 19.877581 -3.142899 22.193937 -10.496388 1.241243 -12.246090 -1.513446 -9.718639 -6.605709 17.322311 5.145288 -16.392941 -12.654660 -1.085503 9.615070 
-0.231984 47.619808 1.028679 0.380747 -1.443690 2.715703 0.000000 0.000000 0.000000 -2.637127 0.741507 0.165324 10.216637 2.528577 1.368872 20.081568 3.592825 1.301783 -1.777429 8.346371 -1.686765 -25.907795 -7.247107 -18.239141 -0.013233 2.809523 9.473919 -9.815832 -3.919370 -2.745469 1.189417 -5.391281 -1.794362 20.704765 -4.063019 -24.992659 3.607408 -5.003073 28.386889 1.681994 14.579848 -2.980058 -4.676813 12.271955 7.130129 20.170277 -3.005958 22.723543 -10.310144 1.202187 -12.323912 -1.483981 -9.436419 -6.472677 17.023027 5.121407 -16.187223 -12.299538 -1.002980 9.485271 
-0.242061 47.638939 0.793765 0.455242 -1.775881 2.325220 0.000000 0.000000 0.000000 -2.236965 0.879600 -0.034104 11.577446 2.958492 1.046553 21.962261 3.631987 1.223200 -1.369709 7.241780 -1.378001 -30.630585 -5.777964 -20.946699 -7.614919 3.748830 6.661024 -15.077098 -2.734391 -2.629896 1.521051 -2.841728 -1.436642 24.780350 -6.692046 -27.349102 14.539917 -5.006893 25.183483 0.947954 13.434700 -3.122434 -5.194807 12.467932 7.005423 20.422792 -2.833169 23.389528 -10.087649 1.221038 -12.340356 -1.737882 -9.084892 -6.204547 16.636309 5.026544 -15.834127 -11.881510 -0.940573 9.321878 
-0.285140 47.646965 0.486775 0.668047 -2.108393 1.749019 0.000000 0.000000 0.000000 -1.602444 1.034237 -0.058529 12.320344 3.124802 0.645702 23.082521 3.632394 0.871107 -1.107936 5.143342 -0.823850 -36.384510 -1.941427 -23.836042 -22.025352 4.907279 4.227603 -20.465965 -0.341985 -2.759697 1.520226 -0.218914 -0.888352 29.933165 -8.630173 -30.275763 25.590202 -5.010946 23.172300 0.917826 12.582295 -3.146684 -5.926531 12.671596 6.849846 20.796064 -2.629499 24.298412 -9.771334 1.164210 -12.475937 -2.342862 -8.774376 -5.956916 16.493280 4.999697 -15.138836 -11.524961 -0.880032 9.061343 
-0.398124 47.634998 0.125953 0.752790 -2.636442 0.830547 0.000000 0.000000 0.000000 -0.567819 1.317490 0.032409 12.438875 3.076056 0.498901 23.574104 3.866992 0.577495 -0.855454 3.113636 0.107251 -42.230236 -0.230086 -25.718113 -30.657495 4.995024 3.477859 -22.344090 -0.299400 -2.706501 1.864322 2.676417 0.019500 35.025723 -9.463308 -32.445377 33.779274 -5.010000 23.131474 0.907602 12.053812 -3.163690 -6.611380 13.300781 6.951809 21.439062 -2.459193 24.970373 -9.545079 1.133026 -12.806619 -3.035369 -8.293512 -5.754711 16.556576 5.220785 -14.080243 -11.235646 -0.825233 8.496277 
-0.553776 47.611465 -0.268000 0.793751 -3.662088 -0.196161 0.000000 0.000000 0.000000 0.583130 1.860485 0.069379 12.157788 3.134633 0.528157 24.037752 4.404168 0.441155 -0.472694 1.172448 1.142702 -48.238575 0.264279 -26.488438 -35.879711 4.996884 4.016089 -21.789152 0.603930 -2.911726 2.218812 6.064872 1.000058 38.950977 -9.860855 -31.438759 39.824905 -5.008807 23.410748 1.748868 10.927531 -3.083002 -7.489225 14.508952 7.138494 22.556446 -2.250512 24.978594 -9.433535 1.172644 -13.171762 -3.181605 -7.522429 -5.734270 15.887737 5.810032 -12.135604 -10.859127 -0.688322 7.591614 
-0.696766 47.562073 -0.637388 1.166987 -4.851729 -1.558733 0.000000 0.000000 0.000000 1.361702 2.621432 0.232918 11.546836 3.310269 0.743769 25.072458 4.345575 0.441150 -0.005376 -0.742746 1.845928 -54.030785 -0.108380 -25.778570 -37.387436 4.993953 4.617397 -21.444931 2.011249 -3.220044 2.589694 9.333837 1.619756 41.964775 -10.026637 -28.028620 43.480747 -5.005590 27.121929 4.581777 11.714446 -2.676033 -8.739607 15.887016 7.226974 24.001200 -1.943569 24.970686 -9.432467 1.222017 -13.762035 -3.942531 -7.063523 -5.947758 16.335747 6.385725 -7.063878 -10.713757 -0.596060 6.659518 
-0.889904 47.424564 -0.957134 1.721910 -5.567801 -3.150281 0.000000 0.000000 0.000000 1.643227 3.079005 0.611509 11.052416 3.309888 1.144619 26.015963 3.945201 0.431357 0.324302 -1.932863 2.081503 -59.940865 -0.650910 -23.133522 -35.975533 4.995526 4.958900 -20.014874 3.105237 -3.441578 3.183816 11.372547 1.787734 45.382198 -10.361411 -24.061750 45.140865 -5.014798 33.565285 9.575412 14.641595 -1.721307 -10.154759 16.959610 7.247191 25.803303 -1.745927 24.964621 -9.582889 1.336739 -14.606703 -7.495425 -7.572437 -6.256109 22.207941 6.413322 2.125856 -10.881663 -0.455548 5.810750 
-1.187765 47.348690 -1.179288 1.834193 -5.464037 -4.179345 0.000000 0.000000 0.000000 1.849640 2.847898 0.760846 11.128345 2.948527 1.242108 26.436914 4.081916 0.431378 0.322073 -3.183084 2.278906 -64.791458 -0.971398 -19.181398 -33.567932 4.994442 4.946527 -17.489933 5.949791 -3.922264 3.326638 11.934821 1.961470 49.831650 -10.422016 -20.897947 45.224121 -5.009412 38.031940 15.476932 16.567245 -0.500433 -10.438199 17.350546 7.332124 26.174171 -1.798958 24.999609 -9.185492 1.344214 -15.082954 -10.827770 -9.021070 -6.682185 28.084953 5.078019 10.991720 -10.164018 -0.394332 5.213138 
-1.554664 47.288284 -1.327742 1.624229 -4.539157 -4.105218 0.000000 0.000000 0.000000 2.096304 2.102334 0.448705 11.260864 2.284954 0.762671 26.735884 4.257727 0.362506 -0.370962 -5.186944 2.491410 -67.690605 -0.568344 -13.656965 -32.991222 4.248016 5.593613 -14.984363 8.635195 -4.273715 2.732729 12.154799 2.243818 54.538113 -10.627963 -18.918716 45.001797 -5.009028 38.448421 18.297386 15.275728 -0.220679 -10.272800 16.697533 7.086525 25.664448 -1.641585 24.995153 -8.356138 1.226082 -15.329936 -11.071043 -11.314142 -7.314848 28.768848 3.886701 12.711710 -9.399630 -0.480492 7.144025 
-2.078213 47.235516 -1.370685 0.874621 -4.045053 -3.534508 0.000000 0.000000 0.000000 2.536398 1.806359 0.015638 11.690237 1.718718 0.351990 26.958483 4.287037 0.333292 -1.051072 -6.721036 2.881020 -69.142303 -0.307113 -6.765408 -33.399071 1.731061 7.500974 -12.382805 10.007270 -4.313643 2.445795 13.501740 2.626365 58.736034 -11.871728 -18.520439 44.861408 -5.006671 35.362499 16.561211 13.443918 -0.815315 -9.518288 16.759958 7.223686 25.070776 -1.564476 24.996819 -7.614434 1.125910 -15.537472 -8.756939 -12.933547 -7.814618 26.634233 3.153788 5.445529 -9.372585 -0.714741 9.693101 
-2.738328 47.284344 -1.327043 0.018015 -3.793889 -2.926440 0.000000 0.000000 0.000000 2.829230 1.845923 -0.292184 12.454435 1.367184 0.136913 27.167624 4.013626 0.274134 -1.095236 -7.111596 3.158216 -70.761299 -0.837861 0.503892 -33.471466 -0.837527 10.888666 -9.921155 10.238833 -4.193153 2.247030 14.471687 2.858365 63.083424 -13.420110 -18.864479 43.408886 -5.011054 31.762686 14.296888 12.944571 -1.214549 -7.889644 17.339882 7.837317 23.265238 -1.701533 24.993082 -6.453711 0.969015 -15.450904 -5.174701 -13.928980 -8.506244 21.907398 2.713653 -2.227368 -9.090866 -0.764929 10.253758 
-3.543735 47.168419 -1.252193 -0.314456 -3.063860 -2.337432 0.000000 0.000000 0.000000 2.517608 1.556238 -0.451185 12.939024 0.839844 -0.029294 27.073311 3.935526 0.186450 -0.788781 -7.001853 2.912702 -71.862885 -1.224411 9.118618 -35.141178 -3.444726 18.939663 -7.044476 7.510386 -3.828896 1.804497 14.187177 2.646264 67.584862 -15.350186 -18.729586 41.529240 -5.013776 28.082312 12.811461 12.259310 -1.517480 -7.206532 17.634340 8.065233 22.409109 -1.722646 24.999212 -5.567279 0.909746 -15.947620 1.042710 -14.718491 -9.982325 11.230762 2.036539 -3.669949 -6.333437 -0.781977 13.568472 
-4.669161 46.865887 -1.166070 -0.531827 -2.302389 -2.560842 0.000000 0.000000 0.000000 2.108524 1.018469 -0.017802 13.212481 -0.029294 0.800781 27.182886 4.882613 0.519856 0.125501 -6.983752 2.558217 -71.499130 -1.611329 16.767130 -38.387230 -5.000216 29.299219 -1.055092 6.393167 -3.533773 2.258707 14.266711 2.252722 70.957680 -17.705812 -18.094923 39.581470 -5.014126 24.423803 12.272414 10.022610 -1.861403 -6.884654 18.416491 8.435213 22.720228 -1.761160 24.993464 -4.982276 0.831270 -17.246799 3.893744 -15.062994 -10.032503 6.668418 0.769428 0.889995 -6.843171 -0.944081 17.013779 
-5.968775 46.562820 -1.200209 -0.869698 -1.823589 -3.048438 0.000000 0.000000 0.000000 2.089882 0.668955 0.643136 13.454311 -0.683232 1.865335 27.318979 5.809814 0.913423 1.201612 -6.759925 2.567465 -70.378998 -3.122014 20.717735 -40.810040 -5.001103 34.304371 2.185685 4.186580 -3.476361 3.000087 15.045083 2.218399 72.603088 -19.580164 -16.651552 38.056381 -4.709132 22.972015 14.185128 7.105117 -2.051003 -6.345886 19.327192 8.626070 22.592554 -1.346540 24.981850 -3.862659 0.755629 -18.720245 0.936304 -15.286081 -8.495718 13.235054 -0.811541 6.093003 -12.029614 -1.683900 16.415340 
-7.329341 46.375053 -1.383817 -0.615698 -2.583771 -3.235736 0.000000 0.000000 0.000000 2.050318 1.350142 1.000429 13.433986 -0.078046 2.578123 27.290632 5.291967 1.118443 1.710223 -5.350437 2.510910 -69.420021 -5.304956 22.936253 -41.059338 -4.998887 30.819145 1.387534 -0.776665 -3.486356 3.775120 17.102394 2.046527 72.668045 -21.188034 -14.996550 37.885693 -4.378845 26.318626 18.244795 6.246635 -1.802319 -6.434747 21.292688 8.660140 21.634443 -0.402488 24.979904 -1.886784 0.419921 -20.114382 -2.548527 -13.605108 -6.506196 19.324739 -0.517451 5.319471 -15.045394 -1.867931 14.699346 
